<svg id="Layer_1" data-name="Layer 1" xmlns="http://www.w3.org/2000/svg" viewBox="0 0 531 144">
  <rect class="cls-1" width="531" height="144"/>
  <path class="cls-2" d="M79.2,83.6c0,5.5-4,6.8-8.6,6.8H57.7V77.1H71.5C76.7,77.1,79.2,79.4,79.2,83.6ZM76.8,57.9c0-3.6-3-4.9-7.5-4.9H57.7V63.8H69.3C73.9,63.8,76.8,62.5,76.8,57.9ZM251.59,76c-.6-6.48-5.61-6.42-11-5.92l-9.76.9,1.33,14.44,8.46-.78C246.31,84.06,252.25,83.12,251.59,76ZM410.48,52.17c-5.58.52-13.81,5-12.35,20.83s10.36,18.73,15.94,18.21,13.8-5,12.34-20.82S416.05,51.66,410.48,52.17ZM513,44.94V126H235.91l-2.18-23.7,12.94-1.2c16.34-1.5,27.14-10.63,25.56-27.86-.94-10.16-9-23.67-28.33-21.89l-36.65,3.37L213.82,126H18V18H513v8.56l-62,5.71L452.7,50.5l19.91-1.84,4.87,52.88,21.91-2-4.87-52.88ZM101.2,85.7c0-10.5-6-15.6-12.4-17.8,5.3-2.9,8.8-6.8,8.8-14S93.6,36,74.8,36H35.69V107.4H76.2C88.8,107.4,101.2,100,101.2,85.7ZM131.8,36h-22V107.4h22Zm70,0h-62V54.3h20v53.1h22V54.3h20Zm104,81.36-6.55-71.1-21.91,2,6.55,71.1Zm65.25-77.71-22.5,2.07-7.49,44.17-.19,0L325.25,43.85l-22.11,2L330.9,115l24.5-2.26Zm77.26,28.73c-2-21.71-17.87-35.91-39.48-33.92S374.22,53.3,376.22,75s17.87,35.92,39.48,33.93S450.32,90.08,448.32,68.37Z"/>
</svg>
